<svg xmlns="http://www.w3.org/2000/svg" xml:space="preserve" width="655.359" height="655.359" style="shape-rendering:geometricPrecision;text-rendering:geometricPrecision;image-rendering:optimizeQuality;fill-rule:evenodd;clip-rule:evenodd" viewBox="0 0 6.827 6.827"><defs><style>.fil0{fill:#212121;fill-rule:nonzero}</style></defs><g id="Layer_x0020_1"><g id="_558153536"><path id="_558154568" class="fil0" d="M1.03 1.176h.655V1.4h.46V1.176H4.682V1.4h.46V1.176h.655a.176.176 0 0 1 .176.177v4.345a.176.176 0 0 1-.177.177H1.03a.176.176 0 0 1-.177-.177V1.353a.176.176 0 0 1 .177-.177zm.442.213h-.405v4.273H5.76V1.389h-.405v.065a.159.159 0 0 1-.16.16h-.567a.159.159 0 0 1-.16-.16V1.39h-2.11v.065a.159.159 0 0 1-.16.16h-.567a.159.159 0 0 1-.159-.16V1.39z"/><path id="_558154688" class="fil0" d="M1.631.951H2.2a.159.159 0 0 1 .16.16v.343a.159.159 0 0 1-.16.16h-.568a.158.158 0 0 1-.16-.16l.001-.343a.159.159 0 0 1 .16-.16zm.514.214h-.46V1.4h.46v-.235z"/><path id="_558154592" class="fil0" d="M4.628.951h.567a.159.159 0 0 1 .16.16v.343a.159.159 0 0 1-.16.16h-.567a.158.158 0 0 1-.16-.16v-.343a.159.159 0 0 1 .16-.16zm.513.214h-.46V1.4h.46v-.235z"/><path id="_558154232" class="fil0" d="M.96 1.96h4.907v.214H.96z"/><path id="_558153776" class="fil0" d="M1.553 2.568h.78v.886h-.886v-.886h.106zm.567.213h-.46v.46h.46v-.46z"/><path id="_558154088" class="fil0" d="M1.553 3.914h.78V4.8h-.886v-.886h.106zm.567.213h-.46v.46h.46v-.46z"/><path id="_558153872" class="fil0" d="M3.628 2.553a.945.945 0 0 1 .948.948.945.945 0 0 1-.948.947.945.945 0 0 1-.948-.947.945.945 0 0 1 .948-.948zm.52.428a.732.732 0 0 0-1.04 0 .732.732 0 0 0 0 1.039.732.732 0 0 0 1.04 0 .732.732 0 0 0 0-1.039z"/><path id="_558153320" class="fil0" d="M4.283 4.086 5.35 5.15l-.151.151-1.066-1.065z"/></g></g><path style="fill:none" d="M0 0h6.827v6.827H0z"/></svg>