<svg xmlns="http://www.w3.org/2000/svg" xml:space="preserve" width="2048" height="2048" style="shape-rendering:geometricPrecision;text-rendering:geometricPrecision;image-rendering:optimizeQuality;fill-rule:evenodd;clip-rule:evenodd"><defs><style>.fil0,.fil1{fill:#212121;fill-rule:nonzero}.fil1{fill:#66bb6a}</style></defs><g id="Layer_x0020_1"><path class="fil0" d="M274.905 589.238 769.238 443.7l-.017-.058c12.715-3.743 26.06 3.53 29.802 16.245a23.966 23.966 0 0 1 .977 7.277v968.142c0 11.506-8.098 21.12-18.906 23.457L286.76 1604.3l.016.057c-12.714 3.743-26.058-3.53-29.801-16.245a23.966 23.966 0 0 1-.977-7.276V612.695c0-11.507 8.098-21.12 18.906-23.457zM752 498.688 303.999 630.585v918.727L752 1417.417V498.688z"/><path class="fil0" d="M1248 630.585 799.999 498.688v918.728L1248 1549.313V630.585zM782.761 443.7l494.333 145.538c10.808 2.336 18.906 11.95 18.906 23.457v968.142c.05 2.4-.262 4.85-.977 7.276-3.743 12.715-17.087 19.988-29.801 16.245l.016-.057-494.333-145.538c-10.808-2.337-18.906-11.95-18.906-23.457V467.164c-.05-2.401.262-4.851.977-7.277 3.743-12.715 17.087-19.988 29.802-16.245l-.017.058z"/><path class="fil0" d="M1266.91 589.238 1761.243 443.7l-.017-.058c12.715-3.743 26.06 3.53 29.802 16.245a23.966 23.966 0 0 1 .977 7.277v968.142c0 11.506-8.098 21.12-18.906 23.457L1278.766 1604.3l.016.057c-12.714 3.743-26.058-3.53-29.801-16.245a23.966 23.966 0 0 1-.977-7.276V612.695c0-11.507 8.098-21.12 18.906-23.457zm477.095-90.55-448.001 131.897v918.727l448.001-131.896V498.688z"/><path class="fil0" d="M270.864 1218.18c-8.332 3.443-14.056 11.232-14.787 20.226-1.465 17.873 16.502 30.945 33.059 24.16l44.386-18.27c8.331-3.444 14.056-11.233 14.787-20.227 1.465-17.872-16.502-30.945-33.06-24.16l-44.385 18.271zm1454.78-203.277c15.703-9.09 16.199-31.424.853-41.164-7.58-4.691-16.917-4.93-24.678-.505l-41.67 23.824c-15.704 9.09-16.2 31.424-.853 41.163 7.579 4.692 16.916 4.932 24.677.506l41.671-23.824zm-166.682 95.297c15.702-9.09 16.199-31.424.853-41.164-7.58-4.69-16.917-4.93-24.678-.505l-41.67 23.824c-15.702 9.09-16.198 31.424-.852 41.164 7.579 4.691 16.917 4.93 24.678.505l41.669-23.824zm-166.68 95.298c15.702-9.091 16.199-31.425.853-41.164-7.58-4.692-16.917-4.931-24.678-.506l-41.67 23.824c-15.702 9.091-16.198 31.425-.852 41.164 7.579 4.691 16.917 4.931 24.678.506l41.669-23.824zm-191.49 36.986c8.065 3.399 17.024 2.207 23.99-3.053 14.57-11.267 11.643-33.878-5.243-41.135l-44.19-18.746c-8.064-3.4-17.023-2.208-23.99 3.053-14.57 11.267-11.642 33.878 5.244 41.134l44.189 18.747zm-176.753-74.985c8.065 3.4 17.024 2.208 23.99-3.053 14.57-11.267 11.643-33.878-5.243-41.134l-44.188-18.746c-8.064-3.399-17.024-2.207-23.99 3.054-14.57 11.266-11.643 33.877 5.244 41.134l44.187 18.745zm-176.752-74.982c8.065 3.399 17.024 2.207 23.99-3.053 14.57-11.267 11.643-33.878-5.244-41.135l-44.187-18.745c-8.064-3.4-17.024-2.207-23.99 3.053-14.57 11.267-11.643 33.878 5.244 41.135l44.187 18.745zm-158.675 5.612c8.332-3.443 14.056-11.232 14.787-20.226 1.465-17.872-16.502-30.945-33.059-24.16l-44.387 18.271c-8.331 3.443-14.056 11.232-14.787 20.226-1.465 17.873 16.502 30.945 33.059 24.16l44.387-18.27zm-177.547 73.084c8.332-3.443 14.056-11.233 14.787-20.227 1.465-17.872-16.502-30.945-33.059-24.16l-44.386 18.271c-8.331 3.443-14.056 11.232-14.787 20.227-1.465 17.872 16.502 30.944 33.06 24.159l44.385-18.27z"/><g id="_460792160"><path id="_460791896" class="fil1" d="M1603.72 685.34c-11.015-11.015-24.027-19.83-38.356-25.765-13.857-5.739-29.174-8.907-45.36-8.907s-31.502 3.168-45.36 8.907c-14.329 5.935-27.342 14.751-38.355 25.765-11.015 11.015-19.83 24.027-25.764 38.355-5.74 13.858-8.91 29.173-8.91 45.36 0 54.13 65.404 147.038 118.382 220.91 52.784-73.901 118.396-166.89 118.396-220.91 0-16.184-3.17-31.5-8.908-45.359-5.935-14.329-14.75-27.341-25.765-38.356zm-20.17-70.016c20.518 8.5 38.868 20.838 54.108 36.078 15.24 15.24 27.579 33.59 36.078 54.108 8.154 19.689 12.657 41.16 12.657 63.545 0 70.367-73.606 173.38-130.877 253.532l-.006.009-7.99 11.19c-7.444 10.445-4.656 6.459-6.553 9.127a23.918 23.918 0 0 1-6.949 7.72c-10.786 7.704-25.775 5.206-33.48-5.58l14.44-10.313-.042.015-14.368 10.224a13684.444 13684.444 0 0 0-12.236-17.112 24.279 24.279 0 0 1-1.27-1.62l.02-.012-.01-.013-.009.006-.16-.225-.1-.13-.042-.054.001-.001-.302-.41.01-.007-.009-.013.062-.044c-57.804-80.536-132.907-185.19-132.907-256.289 0-22.388 4.502-43.857 12.657-63.547 8.497-20.516 20.839-38.866 36.078-54.106 15.238-15.24 33.59-27.579 54.107-36.078 19.69-8.154 41.16-12.657 63.547-12.657 22.385 0 43.856 4.501 63.545 12.657z"/><path id="_460792472" class="fil1" d="M1520 685.439c21.706 0 41.361 8.8 55.587 23.027 14.226 14.227 23.027 33.88 23.027 55.586 0 21.706-8.8 41.361-23.027 55.587-14.227 14.226-33.88 23.027-55.587 23.027-21.705 0-41.36-8.801-55.587-23.027-14.226-14.227-23.027-33.882-23.027-55.587 0-21.706 8.801-41.359 23.027-55.586 14.226-14.227 33.88-23.027 55.587-23.027zm21.65 56.965a30.523 30.523 0 0 0-21.65-8.965 30.523 30.523 0 0 0-21.65 8.965c-5.537 5.538-8.964 13.192-8.964 21.648 0 8.457 3.427 16.111 8.964 21.65 5.539 5.537 13.193 8.964 21.65 8.964 8.456 0 16.111-3.427 21.65-8.964a30.523 30.523 0 0 0 8.964-21.65c0-8.456-3.427-16.11-8.964-21.648z"/></g></g><path style="fill:none" d="M0 0h2048v2048H0z"/></svg>