<svg width="33" height="782" viewBox="0 0 33 782" fill="none" xmlns="http://www.w3.org/2000/svg">
<path d="M32.986 1.16676C33.0781 0.622207 32.7113 0.106101 32.1668 0.0140023C31.6222 -0.078096 31.1061 0.28869 31.014 0.833241L32.986 1.16676ZM30.9943 0.950348C30.9029 1.49502 31.2704 2.01063 31.8151 2.10199C32.3598 2.19335 32.8754 1.82587 32.9667 1.28119L30.9943 0.950348ZM32.0025 7.2333C32.0889 6.68782 31.7168 6.17556 31.1713 6.08913C30.6258 6.0027 30.1136 6.37484 30.0271 6.92032L32.0025 7.2333ZM29.9489 7.41503C29.8627 7.96055 30.2351 8.47264 30.7806 8.55883C31.3261 8.64502 31.8382 8.27265 31.9244 7.72714L29.9489 7.41503ZM30.9833 13.7783C31.067 13.2324 30.6922 12.722 30.1463 12.6384C29.6004 12.5547 29.09 12.9294 29.0064 13.4753L30.9833 13.7783ZM28.9317 13.9633C28.8482 14.5092 29.2231 15.0195 29.769 15.103C30.3149 15.1865 30.8252 14.8116 30.9087 14.2657L28.9317 13.9633ZM30.0132 20.1951C30.0947 19.6489 29.718 19.14 29.1717 19.0585C28.6255 18.977 28.1166 19.3538 28.0351 19.9L30.0132 20.1951ZM27.9645 20.374C27.8831 20.9202 28.26 21.429 28.8062 21.5104C29.3525 21.5917 29.8613 21.2148 29.9426 20.6686L27.9645 20.374ZM29.0618 26.651C29.1414 26.1045 28.7629 25.5969 28.2163 25.5173C27.6698 25.4378 27.1623 25.8163 27.0827 26.3628L29.0618 26.651ZM27.0133 26.84C26.9338 27.3866 27.3125 27.894 27.859 27.9735C28.4056 28.0529 28.913 27.6743 28.9925 27.1277L27.0133 26.84ZM28.1267 33.1478C28.2045 32.6011 27.8243 32.0947 27.2776 32.0169C26.7308 31.9391 26.2245 32.3193 26.1467 32.8661L28.1267 33.1478ZM26.0792 33.3404C26.0015 33.8872 26.3818 34.3935 26.9286 34.4711C27.4754 34.5488 27.9816 34.1685 28.0593 33.6217L26.0792 33.3404ZM27.2249 39.5545C27.3011 39.0075 26.9194 38.5023 26.3724 38.4261C25.8254 38.3499 25.3202 38.7316 25.244 39.2786L27.2249 39.5545ZM25.1723 39.7938C25.0963 40.3408 25.4781 40.8459 26.0251 40.9219C26.5721 40.998 27.0772 40.6162 27.1533 40.0691L25.1723 39.7938ZM26.3394 45.9807C26.414 45.4335 26.0309 44.9294 25.4837 44.8548C24.9365 44.7801 24.4324 45.1633 24.3577 45.7105L26.3394 45.9807ZM24.2894 46.2123C24.2149 46.7595 24.5981 47.2635 25.1453 47.338C25.6926 47.4125 26.1966 47.0293 26.2711 46.482L24.2894 46.2123ZM25.4639 52.4683C25.5371 51.9209 25.1525 51.4179 24.6051 51.3448C24.0577 51.2716 23.5547 51.6562 23.4815 52.2036L25.4639 52.4683ZM23.4162 52.6934C23.3432 53.2408 23.7278 53.7438 24.2752 53.8168C24.8227 53.8898 25.3256 53.5051 25.3986 52.9577L23.4162 52.6934ZM24.6021 58.9889C24.6737 58.4413 24.2879 57.9393 23.7402 57.8677C23.1926 57.796 22.6906 58.1819 22.619 58.7295L24.6021 58.9889ZM22.5515 59.2456C22.48 59.7933 22.8659 60.2952 23.4136 60.3667C23.9612 60.4382 24.4631 60.0523 24.5347 59.5046L22.5515 59.2456ZM23.7729 65.3912C23.8431 64.8434 23.456 64.3424 22.9082 64.2721C22.3604 64.2019 21.8594 64.5891 21.7891 65.1368L23.7729 65.3912ZM21.7249 65.6382C21.6548 66.186 22.042 66.6869 22.5898 66.757C23.1377 66.8272 23.6386 66.4399 23.7087 65.8921L21.7249 65.6382ZM22.9465 71.9028C23.0153 71.3548 22.6269 70.8548 22.0789 70.7859C21.5309 70.7171 21.0309 71.1055 20.9621 71.6535L22.9465 71.9028ZM20.9007 72.1422C20.832 72.6902 21.2205 73.1902 21.7685 73.2589C22.3164 73.3277 22.8164 72.9391 22.8851 72.3912L20.9007 72.1422ZM22.143 78.363C22.2105 77.8148 21.8208 77.3158 21.2727 77.2483C20.7245 77.1808 20.2255 77.5705 20.158 78.1186L22.143 78.363ZM20.0956 78.6258C20.0282 79.174 20.418 79.673 20.9661 79.7403C21.5143 79.8077 22.0133 79.418 22.0806 78.8698L20.0956 78.6258ZM21.3547 84.831C21.4209 84.2827 21.03 83.7846 20.4817 83.7184C19.9334 83.6523 19.4353 84.0431 19.3691 84.5915L21.3547 84.831ZM19.3096 85.0855C19.2435 85.6339 19.6345 86.1319 20.1828 86.1979C20.7311 86.264 21.2292 85.873 21.2952 85.3247L19.3096 85.0855ZM20.5771 91.3432C20.6419 90.7947 20.2499 90.2976 19.7014 90.2327C19.1529 90.1679 18.6558 90.56 18.5909 91.1085L20.5771 91.3432ZM18.5307 91.6182C18.466 92.1666 18.8582 92.6637 19.4067 92.7284C19.9552 92.7932 20.4523 92.401 20.517 91.8525L18.5307 91.6182ZM19.8235 97.7857C19.887 97.2371 19.4938 96.7409 18.9451 96.6774C18.3965 96.6138 17.9003 97.0071 17.8368 97.5557L19.8235 97.7857ZM17.7793 98.0524C17.7159 98.601 18.1092 99.0972 18.6579 99.1606C19.2065 99.224 19.7027 98.8307 19.7661 98.282L17.7793 98.0524ZM19.0751 104.318C19.1373 103.769 18.7429 103.274 18.1941 103.212C17.6453 103.15 17.15 103.544 17.0878 104.093L19.0751 104.318ZM17.0301 104.603C16.968 105.152 17.3625 105.647 17.9113 105.709C18.46 105.771 18.9553 105.377 19.0174 104.828L17.0301 104.603ZM18.3532 110.754C18.4141 110.205 18.0185 109.711 17.4696 109.65C16.9207 109.589 16.4263 109.984 16.3654 110.533L18.3532 110.754ZM16.3102 111.031C16.2493 111.58 16.645 112.074 17.194 112.135C17.7429 112.196 18.2372 111.8 18.298 111.251L16.3102 111.031ZM17.6358 117.287C17.6954 116.738 17.2987 116.244 16.7496 116.184C16.2006 116.125 15.7071 116.522 15.6475 117.071L17.6358 117.287ZM15.5922 117.58C15.5327 118.129 15.9295 118.622 16.4786 118.682C17.0277 118.741 17.521 118.344 17.5806 117.795L15.5922 117.58ZM16.9433 123.732C17.0016 123.182 16.6037 122.69 16.0546 122.631C15.5054 122.573 15.0128 122.971 14.9545 123.52L16.9433 123.732ZM14.9017 124.017C14.8434 124.567 15.2414 125.059 15.7906 125.117C16.3398 125.176 16.8322 124.778 16.8905 124.228L14.9017 124.017ZM16.2579 130.252C16.315 129.703 15.9159 129.211 15.3666 129.154C14.8173 129.097 14.3257 129.496 14.2686 130.046L16.2579 130.252ZM14.2159 130.553C14.1589 131.102 14.558 131.594 15.1074 131.651C15.6567 131.708 16.1482 131.309 16.2052 130.759L14.2159 130.553ZM15.5933 136.72C15.6491 136.17 15.2489 135.679 14.6995 135.624C14.15 135.568 13.6593 135.968 13.6035 136.517L15.5933 136.72ZM13.5531 137.014C13.4974 137.563 13.8976 138.054 14.4471 138.11C14.9966 138.165 15.4872 137.765 15.5429 137.216L13.5531 137.014ZM14.9402 143.221C14.9948 142.672 14.5935 142.182 14.0439 142.127C13.4943 142.073 13.0046 142.474 12.95 143.024L14.9402 143.221ZM12.8999 143.529C12.8454 144.079 13.2468 144.568 13.7964 144.623C14.346 144.677 14.8357 144.276 14.8902 143.726L12.8999 143.529ZM14.3027 149.72C14.356 149.17 13.9535 148.682 13.4038 148.628C12.8541 148.575 12.3653 148.977 12.312 149.527L14.3027 149.72ZM12.2641 150.022C12.2109 150.572 12.6134 151.061 13.1631 151.114C13.7128 151.167 14.2016 150.765 14.2548 150.215L12.2641 150.022ZM13.6822 156.199C13.7342 155.649 13.3306 155.161 12.7808 155.109C12.231 155.057 11.7431 155.461 11.6911 156.011L13.6822 156.199ZM11.6435 156.514C11.5916 157.063 11.9952 157.551 12.5451 157.603C13.0949 157.655 13.5827 157.252 13.6347 156.702L11.6435 156.514ZM13.0714 162.736C13.1221 162.186 12.7174 161.699 12.1675 161.648C11.6175 161.597 11.1306 162.002 11.0798 162.552L13.0714 162.736ZM11.0343 163.046C10.9837 163.596 11.3885 164.083 11.9384 164.133C12.4884 164.184 12.9753 163.779 13.0259 163.229L11.0343 163.046ZM12.4833 169.19C12.5328 168.64 12.127 168.154 11.5769 168.105C11.0269 168.055 10.5408 168.461 10.4914 169.011L12.4833 169.19ZM10.4464 169.512C10.397 170.062 10.8029 170.548 11.353 170.597C11.903 170.647 12.389 170.241 12.4384 169.691L10.4464 169.512ZM11.9024 175.735C11.9506 175.185 11.5436 174.699 10.9934 174.651C10.4433 174.603 9.95819 175.01 9.90999 175.56L11.9024 175.735ZM9.86559 176.068C9.8175 176.618 10.2245 177.103 10.7747 177.151C11.3249 177.199 11.8099 176.792 11.858 176.242L9.86559 176.068ZM11.3437 182.199C11.3906 181.648 10.9826 181.164 10.4323 181.117C9.882 181.07 9.39787 181.478 9.35095 182.029L11.3437 182.199ZM9.30851 182.527C9.26169 183.077 9.66984 183.561 10.2201 183.608C10.7704 183.655 11.2545 183.247 11.3013 182.697L9.30851 182.527ZM10.7963 188.709C10.8419 188.159 10.4327 187.676 9.88235 187.63C9.33195 187.584 8.84878 187.993 8.80315 188.544L10.7963 188.709ZM8.76138 189.048C8.71585 189.599 9.12513 190.082 9.67554 190.127C10.2259 190.173 10.709 189.764 10.7546 189.213L8.76138 189.048ZM10.2637 195.226C10.3081 194.676 9.89775 194.193 9.34725 194.149C8.79674 194.105 8.31453 194.515 8.2702 195.066L10.2637 195.226ZM8.23028 195.562C8.18605 196.112 8.59646 196.594 9.14697 196.639C9.69748 196.683 10.1796 196.273 10.2239 195.722L8.23028 195.562ZM9.74962 201.705C9.79266 201.155 9.3812 200.673 8.83059 200.63C8.27999 200.587 7.79874 200.999 7.7557 201.549L9.74962 201.705ZM7.71653 202.051C7.67359 202.602 8.08514 203.083 8.63575 203.126C9.18637 203.169 9.66754 202.757 9.71048 202.206L7.71653 202.051ZM9.24551 208.254C9.28724 207.704 8.87463 207.224 8.32392 207.182C7.77322 207.14 7.29295 207.553 7.25123 208.103L9.24551 208.254ZM7.21286 208.61C7.17123 209.161 7.58393 209.641 8.13464 209.683C8.68536 209.725 9.16554 209.312 9.20717 208.761L7.21286 208.61ZM8.763 214.724C8.80342 214.173 8.38967 213.694 7.83887 213.654C7.28807 213.613 6.80878 214.027 6.76836 214.578L8.763 214.724ZM6.73178 215.077C6.69146 215.628 7.10529 216.107 7.6561 216.147C8.20691 216.188 8.68612 215.774 8.72644 215.223L6.73178 215.077ZM8.29283 221.238C8.33193 220.687 7.91704 220.209 7.36614 220.17C6.81524 220.13 6.33695 220.545 6.29785 221.096L8.29283 221.238ZM6.26213 221.6C6.22313 222.151 6.63811 222.629 7.18902 222.668C7.73993 222.707 8.21814 222.292 8.25714 221.741L6.26213 221.6ZM7.83741 227.766C7.87517 227.215 7.45912 226.738 6.90813 226.7C6.35714 226.663 5.87986 227.079 5.84209 227.63L7.83741 227.766ZM5.80807 228.127C5.77041 228.678 6.18655 229.155 6.73755 229.192C7.28855 229.23 7.76575 228.814 7.80342 228.263L5.80807 228.127ZM7.40099 234.248C7.43742 233.697 7.02021 233.221 6.46913 233.184C5.91805 233.148 5.44178 233.565 5.40534 234.116L7.40099 234.248ZM5.37225 234.618C5.33592 235.169 5.75321 235.645 6.3043 235.681C6.85539 235.718 7.33159 235.3 7.36792 234.749L5.37225 234.618ZM6.97683 240.786C7.0119 240.235 6.59353 239.759 6.04236 239.724C5.49119 239.689 5.01594 240.108 4.98086 240.659L6.97683 240.786ZM4.94874 241.164C4.91376 241.716 5.33223 242.191 5.8834 242.226C6.43458 242.261 6.90975 241.842 6.94472 241.291L4.94874 241.164ZM6.57123 247.285C6.60495 246.733 6.18541 246.259 5.63416 246.225C5.0829 246.192 4.60869 246.611 4.57496 247.162L6.57123 247.285ZM4.54449 247.661C4.51087 248.213 4.9305 248.687 5.48176 248.72C6.03302 248.754 6.50716 248.334 6.54078 247.783L4.54449 247.661ZM6.1814 253.789C6.21375 253.238 5.79304 252.765 5.2417 252.732C4.69036 252.7 4.21719 253.121 4.18483 253.672L6.1814 253.789ZM4.15538 254.175C4.12313 254.726 4.54394 255.199 5.09528 255.232C5.64662 255.264 6.11972 254.843 6.15196 254.292L4.15538 254.175ZM5.80509 260.343C5.83606 259.791 5.41415 259.319 4.86273 259.288C4.31132 259.257 3.8392 259.679 3.80824 260.231L5.80509 260.343ZM3.78028 260.729C3.74942 261.281 4.17142 261.753 4.72284 261.784C5.27426 261.815 5.74629 261.392 5.77715 260.841L3.78028 260.729ZM5.44946 266.821C5.47904 266.269 5.05594 265.798 4.50445 265.769C3.95296 265.739 3.48191 266.162 3.45233 266.714L5.44946 266.821ZM3.42554 267.214C3.39607 267.766 3.81925 268.237 4.37075 268.266C4.92225 268.296 5.39322 267.872 5.42269 267.321L3.42554 267.214ZM5.10806 273.341C5.13624 272.79 4.71194 272.32 4.16038 272.292C3.60881 272.263 3.13884 272.688 3.11067 273.239L5.10806 273.341ZM3.08499 273.743C3.05692 274.295 3.48131 274.765 4.03288 274.793C4.58445 274.821 5.05434 274.396 5.0824 273.845L3.08499 273.743ZM4.78266 279.877C4.80941 279.326 4.38391 278.857 3.83227 278.83C3.28063 278.803 2.81176 279.229 2.78501 279.781L4.78266 279.877ZM2.76089 280.279C2.73425 280.831 3.15985 281.299 3.71149 281.326C4.26313 281.353 4.73192 280.927 4.75856 280.375L2.76089 280.279ZM4.47625 286.37C4.50157 285.818 4.07485 285.35 3.52315 285.325C2.97144 285.3 2.50367 285.727 2.47835 286.278L4.47625 286.37ZM2.45539 286.78C2.43018 287.331 2.85699 287.799 3.4087 287.824C3.96041 287.849 4.42809 287.423 4.4533 286.871L2.45539 286.78ZM4.18508 292.901C4.20895 292.349 3.78101 291.883 3.22924 291.859C2.67747 291.835 2.21082 292.263 2.18695 292.814L4.18508 292.901ZM2.16518 293.319C2.14142 293.871 2.56946 294.337 3.12124 294.361C3.67301 294.385 4.13957 293.957 4.16333 293.405L2.16518 293.319ZM3.91152 299.424C3.93392 298.872 3.50474 298.407 2.95291 298.384C2.40108 298.362 1.93557 298.791 1.91316 299.343L3.91152 299.424ZM1.89293 299.842C1.87063 300.394 2.29991 300.86 2.85174 300.882C3.40358 300.904 3.869 300.475 3.8913 299.923L1.89293 299.842ZM3.65608 305.928C3.67701 305.376 3.24659 304.912 2.6947 304.891C2.14282 304.87 1.67845 305.3 1.65752 305.852L3.65608 305.928ZM1.63852 306.354C1.6177 306.906 2.04822 307.371 2.60011 307.391C3.152 307.412 3.61628 306.982 3.6371 306.43L1.63852 306.354ZM3.41694 312.466C3.43638 311.914 3.0047 311.45 2.45276 311.431C1.90082 311.412 1.43762 311.843 1.41818 312.395L3.41694 312.466ZM1.40046 312.9C1.38114 313.452 1.81292 313.915 2.36486 313.934C2.91681 313.954 3.37992 313.522 3.39924 312.97L1.40046 312.9ZM3.19639 318.981C3.21432 318.429 2.78138 317.967 2.22939 317.949C1.67739 317.931 1.21538 318.364 1.19745 318.916L3.19639 318.981ZM1.18125 319.416C1.16343 319.968 1.59647 320.43 2.14847 320.448C2.70047 320.465 3.16239 320.032 3.18021 319.48L1.18125 319.416ZM2.99384 325.493C3.01024 324.941 2.57603 324.48 2.02398 324.463C1.47194 324.447 1.01113 324.881 0.99472 325.433L2.99384 325.493ZM0.979837 325.936C0.963549 326.488 1.39787 326.949 1.94991 326.965C2.50195 326.981 2.96268 326.547 2.97897 325.995L0.979837 325.936ZM2.8086 332.034C2.82346 331.482 2.38795 331.022 1.83587 331.007C1.28378 330.992 0.824185 331.428 0.809327 331.98L2.8086 332.034ZM0.795799 332.485C0.781061 333.037 1.21667 333.496 1.76876 333.511C2.32085 333.526 2.78035 333.09 2.79509 332.538L0.795799 332.485ZM2.64257 338.544C2.65587 337.992 2.21906 337.534 1.66694 337.521C1.11481 337.507 0.656448 337.944 0.643149 338.496L2.64257 338.544ZM0.631139 338.997C0.617961 339.549 1.05487 340.008 1.60699 340.021C2.15912 340.034 2.61739 339.597 2.63057 339.045L0.631139 338.997ZM2.49489 345.062C2.50661 344.51 2.0685 344.053 1.51634 344.041C0.964177 344.029 0.507062 344.467 0.495343 345.02L2.49489 345.062ZM0.484727 345.522C0.473131 346.075 0.911346 346.532 1.46351 346.543C2.01567 346.555 2.47269 346.117 2.48429 345.564L0.484727 345.522ZM2.36553 351.604C2.37565 351.052 1.93621 350.596 1.38401 350.586C0.831823 350.576 0.375984 351.016 0.36587 351.568L2.36553 351.604ZM0.356683 352.072C0.346693 352.625 0.786237 353.08 1.33843 353.09C1.89063 353.1 2.34637 352.661 2.35636 352.109L0.356683 352.072ZM2.25583 358.113C2.26432 357.561 1.82355 357.107 1.27133 357.098C0.71911 357.09 0.264559 357.53 0.256062 358.083L2.25583 358.113ZM0.248405 358.584C0.240033 359.136 0.68091 359.591 1.23313 359.599C1.78535 359.607 2.2398 359.167 2.24818 358.614L0.248405 358.584ZM2.16515 364.634C2.17201 364.082 1.72989 363.629 1.17764 363.622C0.625402 363.615 0.172163 364.057 0.165306 364.61L2.16515 364.634ZM0.159119 365.113C0.15239 365.665 0.594616 366.118 1.14686 366.125C1.6991 366.131 2.15224 365.689 2.15897 365.137L0.159119 365.113ZM2.09378 371.176C2.09897 370.624 1.65548 370.172 1.10322 370.167C0.550963 370.162 0.0990604 370.605 0.0938706 371.157L2.09378 371.176ZM0.0891888 371.662C0.0841284 372.214 0.527723 372.666 1.07998 372.671C1.63225 372.676 2.08404 372.232 2.0891 371.68L0.0891888 371.662ZM2.0425 377.686C2.046 377.133 1.60114 376.683 1.04887 376.679C0.496595 376.676 0.0460444 377.121 0.0425354 377.673L2.0425 377.686ZM0.0394076 378.174C0.0360288 378.727 0.480997 379.177 1.03327 379.18C1.58555 379.184 2.03599 378.739 2.03937 378.187L0.0394076 378.174ZM2.01111 384.208C2.01291 383.656 1.56666 383.207 1.01438 383.205C0.462094 383.203 0.0129202 383.65 0.0111181 384.202L2.01111 384.208ZM0.00953722 384.705C0.00786752 385.257 0.454227 385.706 1.00651 385.708C1.55879 385.709 2.00786 385.263 2.00953 384.711L0.00953722 384.705ZM2.00002 390.748C2.00008 390.196 1.55242 389.748 1.00014 389.748C0.447853 389.748 8.27312e-05 390.195 1.5378e-05 390.748L2.00002 390.748ZM1.5378e-05 391.252C8.26716e-05 391.804 0.447852 392.252 1.00014 392.252C1.55242 392.252 2.00008 391.804 2.00002 391.252L1.5378e-05 391.252ZM2.00953 397.289C2.00786 396.737 1.55879 396.29 1.00651 396.292C0.454227 396.294 0.00786704 396.743 0.00953674 397.295L2.00953 397.289ZM0.0111176 397.798C0.0129197 398.35 0.462093 398.797 1.01438 398.795C1.56666 398.793 2.01291 398.344 2.01111 397.792L0.0111176 397.798ZM2.03937 403.813C2.03599 403.261 1.58554 402.816 1.03327 402.819C0.480996 402.823 0.0360277 403.273 0.0394064 403.825L2.03937 403.813ZM0.0425343 404.327C0.0460433 404.879 0.496594 405.324 1.04887 405.321C1.60114 405.317 2.046 404.867 2.04249 404.314L0.0425343 404.327ZM2.0891 410.32C2.08404 409.767 1.63224 409.324 1.07998 409.329C0.527721 409.334 0.0841268 409.786 0.0891871 410.338L2.0891 410.32ZM0.0938689 410.843C0.0990586 411.395 0.550961 411.838 1.10322 411.833C1.65548 411.828 2.09897 411.376 2.09378 410.824L0.0938689 410.843ZM2.15897 416.863C2.15224 416.311 1.6991 415.868 1.14686 415.875C0.594614 415.882 0.152387 416.335 0.159117 416.887L2.15897 416.863ZM0.165303 417.39C0.17216 417.942 0.625399 418.385 1.17764 418.378C1.72988 418.371 2.17201 417.918 2.16515 417.365L0.165303 417.39ZM2.24817 423.386C2.2398 422.833 1.78535 422.392 1.23313 422.401C0.680908 422.409 0.240031 422.864 0.248403 423.416L2.24817 423.386ZM0.25606 423.917C0.264557 424.469 0.719107 424.91 1.27133 424.902C1.82355 424.893 2.26432 424.439 2.25582 423.886L0.25606 423.917ZM2.35635 429.891C2.34636 429.339 1.89062 428.9 1.33843 428.91C0.786234 428.92 0.34669 429.375 0.35668 429.927L2.35635 429.891ZM0.365866 430.432C0.37598 430.984 0.831819 431.424 1.38401 431.414C1.9362 431.404 2.37564 430.948 2.36553 430.396L0.365866 430.432ZM2.48428 436.435C2.47269 435.883 2.01567 435.445 1.46351 435.457C0.911342 435.468 0.473127 435.925 0.484723 436.477L2.48428 436.435ZM0.495339 436.98C0.507058 437.532 0.964173 437.97 1.51633 437.959C2.06849 437.947 2.50661 437.49 2.49489 436.938L0.495339 436.98ZM2.63057 442.955C2.61739 442.403 2.15912 441.966 1.60699 441.979C1.05486 441.992 0.617957 442.451 0.631135 443.003L2.63057 442.955ZM0.643145 443.504C0.656443 444.056 1.11481 444.492 1.66693 444.479C2.21906 444.466 2.65586 444.008 2.64256 443.455L0.643145 443.504ZM2.79508 449.462C2.78034 448.91 2.32084 448.474 1.76875 448.489C1.21666 448.503 0.781056 448.963 0.795793 449.515L2.79508 449.462ZM0.809323 450.02C0.82418 450.572 1.28378 451.007 1.83586 450.993C2.38795 450.978 2.82346 450.518 2.8086 449.966L0.809323 450.02ZM2.97896 456.005C2.96267 455.453 2.50195 455.019 1.9499 455.035C1.39786 455.051 0.963543 455.512 0.979831 456.064L2.97896 456.005ZM0.994714 456.566C1.01112 457.119 1.47194 457.553 2.02398 457.536C2.57602 457.52 3.01024 457.059 2.99383 456.507L0.994714 456.566ZM3.1802 462.519C3.16239 461.967 2.70046 461.534 2.14847 461.552C1.59647 461.57 1.16343 462.032 1.18124 462.584L3.1802 462.519ZM1.19744 463.084C1.21537 463.636 1.67739 464.069 2.22938 464.051C2.78137 464.033 3.21432 463.571 3.19639 463.019L1.19744 463.084ZM3.39923 469.03C3.37991 468.478 2.9168 468.046 2.36486 468.066C1.81291 468.085 1.38113 468.548 1.40046 469.1L3.39923 469.03ZM1.41818 469.605C1.43762 470.157 1.90081 470.588 2.45275 470.569C3.0047 470.549 3.43638 470.086 3.41694 469.534L1.41818 469.605ZM3.63709 475.57C3.61627 475.018 3.15199 474.588 2.6001 474.608C2.04821 474.629 1.61769 475.094 1.63851 475.645L3.63709 475.57ZM1.65751 476.148C1.67844 476.699 2.14281 477.13 2.6947 477.109C3.24659 477.088 3.67701 476.624 3.65607 476.072L1.65751 476.148ZM3.89129 482.077C3.869 481.525 3.40357 481.096 2.85174 481.118C2.2999 481.14 1.87063 481.606 1.89292 482.158L3.89129 482.077ZM1.91316 482.657C1.93557 483.209 2.40108 483.638 2.95291 483.616C3.50474 483.593 3.93392 483.128 3.91151 482.576L1.91316 482.657ZM4.16332 488.595C4.13956 488.043 3.673 487.615 3.12123 487.639C2.56946 487.663 2.14141 488.129 2.16517 488.681L4.16332 488.595ZM2.18694 489.185C2.21081 489.737 2.67746 490.165 3.22923 490.141C3.781 490.117 4.20895 489.651 4.18507 489.099L2.18694 489.185ZM4.4533 495.129C4.42809 494.577 3.9604 494.15 3.40869 494.176C2.85698 494.201 2.43017 494.668 2.45538 495.22L4.4533 495.129ZM2.47834 495.722C2.50367 496.273 2.97144 496.7 3.52314 496.675C4.07485 496.649 4.50156 496.182 4.47624 495.63L2.47834 495.722ZM4.75856 501.624C4.73192 501.073 4.26313 500.647 3.71148 500.674C3.15984 500.7 2.73424 501.169 2.76088 501.721L4.75856 501.624ZM2.785 502.219C2.81175 502.771 3.28063 503.196 3.83226 503.17C4.3839 503.143 4.80941 502.674 4.78266 502.122L2.785 502.219ZM5.08239 508.155C5.05433 507.604 4.58445 507.179 4.03287 507.207C3.4813 507.235 3.05692 507.705 3.08498 508.257L5.08239 508.155ZM3.11066 508.761C3.13883 509.312 3.6088 509.736 4.16037 509.708C4.71193 509.68 5.13623 509.21 5.10805 508.659L3.11066 508.761ZM5.42268 514.679C5.39321 514.127 4.92224 513.704 4.37074 513.734C3.81924 513.763 3.39606 514.234 3.42553 514.786L5.42268 514.679ZM3.45232 515.286C3.4819 515.838 3.95295 516.261 4.50444 516.231C5.05594 516.202 5.47903 515.73 5.44945 515.179L3.45232 515.286ZM5.77714 521.159C5.74628 520.607 5.27425 520.185 4.72283 520.216C4.17141 520.247 3.74941 520.719 3.78027 521.271L5.77714 521.159ZM3.80823 521.769C3.83919 522.321 4.31131 522.743 4.86272 522.712C5.41414 522.681 5.83605 522.209 5.80508 521.657L3.80823 521.769ZM6.15196 527.708C6.11971 527.157 5.64661 526.736 5.09527 526.768C4.54393 526.801 4.12312 527.274 4.15537 527.825L6.15196 527.708ZM4.18482 528.328C4.21718 528.879 4.69035 529.3 5.24169 529.267C5.79303 529.235 6.21374 528.762 6.18139 528.211L4.18482 528.328ZM6.54077 534.217C6.50715 533.665 6.03301 533.246 5.48175 533.279C4.93049 533.313 4.51086 533.787 4.54448 534.338L6.54077 534.217ZM4.57495 534.837C4.60868 535.389 5.08289 535.808 5.63415 535.774C6.1854 535.741 6.60494 535.266 6.57122 534.715L4.57495 534.837ZM6.94471 540.709C6.90974 540.158 6.43457 539.739 5.88339 539.774C5.33222 539.809 4.91375 540.284 4.94873 540.835L6.94471 540.709ZM4.98085 541.341C5.01593 541.892 5.49118 542.311 6.04235 542.275C6.59352 542.24 7.01189 541.765 6.97681 541.214L4.98085 541.341ZM7.3679 547.251C7.33157 546.7 6.85538 546.282 6.30429 546.319C5.7532 546.355 5.33591 546.831 5.37224 547.382L7.3679 547.251ZM5.40533 547.883C5.44176 548.435 5.91804 548.852 6.46912 548.815C7.0202 548.779 7.43741 548.303 7.40097 547.752L5.40533 547.883ZM7.80341 553.737C7.76574 553.186 7.28854 552.77 6.73754 552.807C6.18654 552.845 5.7704 553.322 5.80806 553.873L7.80341 553.737ZM5.84208 554.37C5.87985 554.921 6.35713 555.337 6.90812 555.3C7.45911 555.262 7.87516 554.785 7.8374 554.234L5.84208 554.37ZM8.25712 560.258C8.21813 559.707 7.73992 559.292 7.18901 559.331C6.6381 559.37 6.22312 559.849 6.26212 560.4L8.25712 560.258ZM6.29784 560.904C6.33694 561.454 6.81523 561.869 7.36613 561.83C7.91703 561.791 8.33192 561.313 8.29282 560.762L6.29784 560.904ZM8.72643 566.777C8.68611 566.226 8.2069 565.812 7.65609 565.852C7.10528 565.893 6.69144 566.372 6.73176 566.923L8.72643 566.777ZM6.76835 567.422C6.80877 567.973 7.28806 568.387 7.83886 568.346C8.38966 568.306 8.80341 567.826 8.76299 567.276L6.76835 567.422ZM9.20716 573.239C9.16553 572.688 8.68535 572.275 8.13463 572.317C7.58392 572.359 7.17122 572.839 7.21285 573.389L9.20716 573.239ZM7.25122 573.896C7.29294 574.447 7.7732 574.86 8.32391 574.818C8.87462 574.776 9.28723 574.296 9.2455 573.745L7.25122 573.896ZM9.71047 579.793C9.66752 579.243 9.18635 578.831 8.63574 578.874C8.08513 578.917 7.67358 579.398 7.71652 579.949L9.71047 579.793ZM7.75569 580.451C7.79873 581.001 8.27998 581.413 8.83058 581.37C9.38119 581.327 9.79265 580.845 9.74961 580.295L7.75569 580.451ZM10.2238 586.278C10.1796 585.727 9.69747 585.317 9.14696 585.361C8.59645 585.405 8.18604 585.888 8.23027 586.438L10.2238 586.278ZM8.27019 586.934C8.31452 587.485 8.79673 587.895 9.34723 587.851C9.89774 587.806 10.3081 587.324 10.2637 586.774L8.27019 586.934ZM10.7546 592.787C10.709 592.236 10.2259 591.827 9.67552 591.872C9.12512 591.918 8.71583 592.401 8.76136 592.952L10.7546 592.787ZM8.80314 593.456C8.84876 594.006 9.33194 594.416 9.88234 594.37C10.4327 594.324 10.8419 593.841 10.7963 593.291L8.80314 593.456ZM11.3013 599.303C11.2545 598.753 10.7704 598.345 10.2201 598.392C9.66982 598.438 9.26167 598.922 9.30849 599.473L11.3013 599.303ZM9.35093 599.971C9.39785 600.521 9.88198 600.93 10.4323 600.883C10.9826 600.836 11.3906 600.352 11.3437 599.801L9.35093 599.971ZM11.858 605.758C11.8099 605.208 11.3249 604.801 10.7747 604.849C10.2245 604.897 9.81749 605.382 9.86558 605.932L11.858 605.758ZM9.90998 606.44C9.95817 606.99 10.4432 607.397 10.9934 607.349C11.5436 607.3 11.9505 606.815 11.9024 606.265L9.90998 606.44ZM12.4383 612.309C12.389 611.759 11.903 611.353 11.3529 611.403C10.8029 611.452 10.397 611.938 10.4464 612.488L12.4383 612.309ZM10.4913 612.989C10.5408 613.539 11.0268 613.945 11.5769 613.895C12.127 613.846 12.5328 613.36 12.4833 612.81L10.4913 612.989ZM13.0259 618.771C12.9752 618.221 12.4884 617.816 11.9384 617.867C11.3884 617.917 10.9837 618.404 11.0343 618.954L13.0259 618.771ZM11.0798 619.448C11.1306 619.998 11.6175 620.402 12.1675 620.352C12.7174 620.301 13.1221 619.814 13.0714 619.264L11.0798 619.448ZM13.6346 625.298C13.5827 624.748 13.0949 624.345 12.5451 624.397C11.9952 624.449 11.5916 624.936 11.6435 625.486L13.6346 625.298ZM11.691 625.989C11.7431 626.539 12.231 626.943 12.7808 626.891C13.3306 626.839 13.7342 626.351 13.6821 625.801L11.691 625.989ZM14.2548 631.785C14.2016 631.235 13.7128 630.833 13.1631 630.886C12.6134 630.939 12.2109 631.428 12.2641 631.978L14.2548 631.785ZM12.312 632.473C12.3653 633.022 12.8541 633.425 13.4038 633.372C13.9535 633.318 14.356 632.829 14.3027 632.28L12.312 632.473ZM14.8901 638.274C14.8357 637.724 14.346 637.323 13.7964 637.377C13.2468 637.432 12.8454 637.921 12.8999 638.471L14.8901 638.274ZM12.95 638.976C13.0046 639.526 13.4943 639.927 14.0439 639.872C14.5935 639.818 14.9948 639.328 14.9402 638.779L12.95 638.976ZM15.5429 644.784C15.4872 644.235 14.9965 643.835 14.4471 643.89C13.8976 643.946 13.4974 644.437 13.5531 644.986L15.5429 644.784ZM13.6035 645.482C13.6593 646.032 14.15 646.432 14.6994 646.376C15.2489 646.32 15.6491 645.83 15.5932 645.28L13.6035 645.482ZM16.2052 651.24C16.1482 650.691 15.6567 650.292 15.1073 650.349C14.558 650.406 14.1589 650.898 14.2159 651.447L16.2052 651.24ZM14.2686 651.954C14.3257 652.504 14.8173 652.903 15.3666 652.845C15.9159 652.788 16.3149 652.297 16.2579 651.747L14.2686 651.954ZM16.8905 657.771C16.8322 657.222 16.3397 656.824 15.7905 656.883C15.2413 656.941 14.8434 657.433 14.9016 657.982L16.8905 657.771ZM14.9544 658.48C15.0128 659.029 15.5053 659.427 16.0545 659.368C16.6037 659.31 17.0016 658.818 16.9432 658.268L14.9544 658.48ZM17.5806 664.205C17.521 663.656 17.0277 663.259 16.4786 663.318C15.9295 663.378 15.5327 663.871 15.5922 664.42L17.5806 664.205ZM15.6475 664.929C15.7071 665.478 16.2006 665.875 16.7496 665.815C17.2987 665.756 17.6954 665.262 17.6358 664.713L15.6475 664.929ZM18.298 670.749C18.2372 670.2 17.7429 669.804 17.1939 669.865C16.645 669.926 16.2493 670.42 16.3102 670.969L18.298 670.749ZM16.3653 671.467C16.4263 672.016 16.9207 672.411 17.4696 672.35C18.0185 672.289 18.4141 671.795 18.3531 671.246L16.3653 671.467ZM19.0174 677.172C18.9552 676.623 18.46 676.229 17.9112 676.291C17.3625 676.353 16.9679 676.848 17.03 677.397L19.0174 677.172ZM17.0878 677.907C17.15 678.456 17.6453 678.85 18.1941 678.788C18.7429 678.726 19.1373 678.23 19.0751 677.682L17.0878 677.907ZM19.7661 683.718C19.7026 683.169 19.2065 682.776 18.6579 682.839C18.1092 682.903 17.7159 683.399 17.7793 683.948L19.7661 683.718ZM17.8367 684.444C17.9003 684.993 18.3965 685.386 18.9451 685.323C19.4937 685.259 19.887 684.763 19.8235 684.214L17.8367 684.444ZM20.517 690.147C20.4522 689.599 19.9551 689.207 19.4067 689.271C18.8582 689.336 18.466 689.833 18.5307 690.382L20.517 690.147ZM18.5909 690.891C18.6557 691.44 19.1529 691.832 19.7014 691.767C20.2498 691.702 20.6419 691.205 20.5771 690.657L18.5909 690.891ZM21.2952 696.675C21.2291 696.127 20.7311 695.736 20.1828 695.802C19.6344 695.868 19.2435 696.366 19.3095 696.914L21.2952 696.675ZM19.3691 697.408C19.4352 697.957 19.9334 698.348 20.4817 698.281C21.03 698.215 21.4208 697.717 21.3547 697.169L19.3691 697.408ZM22.0806 703.13C22.0132 702.582 21.5143 702.192 20.9661 702.26C20.4179 702.327 20.0282 702.826 20.0956 703.374L22.0806 703.13ZM20.158 703.881C20.2254 704.429 20.7245 704.819 21.2727 704.752C21.8208 704.684 22.2105 704.185 22.143 703.637L20.158 703.881ZM22.8851 709.609C22.8164 709.061 22.3164 708.672 21.7684 708.741C21.2204 708.81 20.8319 709.31 20.9007 709.858L22.8851 709.609ZM20.962 710.346C21.0309 710.894 21.5309 711.283 22.0789 711.214C22.6269 711.145 23.0153 710.645 22.9464 710.097L20.962 710.346ZM23.7087 716.108C23.6386 715.56 23.1376 715.173 22.5898 715.243C22.042 715.313 21.6548 715.814 21.7249 716.362L23.7087 716.108ZM21.7891 716.863C21.8594 717.411 22.3604 717.798 22.9082 717.728C23.456 717.657 23.8431 717.156 23.7729 716.609L21.7891 716.863ZM24.5346 722.495C24.4631 721.948 23.9612 721.562 23.4136 721.633C22.8659 721.705 22.48 722.207 22.5515 722.754L24.5346 722.495ZM22.619 723.27C22.6906 723.818 23.1926 724.204 23.7402 724.132C24.2878 724.061 24.6737 723.559 24.6021 723.011L22.619 723.27ZM25.3986 729.042C25.3256 728.495 24.8227 728.11 24.2752 728.183C23.7278 728.256 23.3432 728.759 23.4162 729.307L25.3986 729.042ZM23.4815 729.796C23.5546 730.344 24.0577 730.728 24.6051 730.655C25.1525 730.582 25.537 730.079 25.4639 729.532L23.4815 729.796ZM26.2711 735.518C26.1966 734.971 25.6926 734.587 25.1453 734.662C24.5981 734.736 24.2149 735.24 24.2894 735.788L26.2711 735.518ZM24.3577 736.289C24.4323 736.837 24.9364 737.22 25.4837 737.145C26.0309 737.07 26.414 736.566 26.3394 736.019L24.3577 736.289ZM27.1533 741.931C27.0772 741.384 26.5721 741.002 26.0251 741.078C25.4781 741.154 25.0963 741.659 25.1723 742.206L27.1533 741.931ZM25.244 742.721C25.3202 743.268 25.8254 743.65 26.3724 743.574C26.9194 743.498 27.3011 742.992 27.2249 742.445L25.244 742.721ZM28.0593 748.378C27.9816 747.831 27.4754 747.451 26.9286 747.529C26.3818 747.606 26.0015 748.113 26.0792 748.659L28.0593 748.378ZM26.1466 749.134C26.2244 749.681 26.7308 750.061 27.2776 749.983C27.8243 749.905 28.2045 749.399 28.1267 748.852L26.1466 749.134ZM28.9924 754.872C28.913 754.326 28.4055 753.947 27.859 754.026C27.3125 754.106 26.9338 754.613 27.0132 755.16L28.9924 754.872ZM27.0827 755.637C27.1622 756.184 27.6698 756.562 28.2163 756.483C28.7628 756.403 29.1414 755.895 29.0618 755.349L27.0827 755.637ZM29.9426 761.331C29.8613 760.785 29.3525 760.408 28.8062 760.49C28.26 760.571 27.8831 761.08 27.9644 761.626L29.9426 761.331ZM28.0351 762.1C28.1166 762.646 28.6255 763.023 29.1717 762.941C29.7179 762.86 30.0947 762.351 30.0132 761.805L28.0351 762.1ZM30.9087 767.734C30.8252 767.188 30.3149 766.813 29.769 766.897C29.223 766.98 28.8482 767.491 28.9316 768.037L30.9087 767.734ZM29.0064 768.525C29.09 769.07 29.6004 769.445 30.1463 769.362C30.6922 769.278 31.0669 768.768 30.9833 768.222L29.0064 768.525ZM31.9244 774.273C31.8382 773.727 31.3261 773.355 30.7806 773.441C30.235 773.527 29.8627 774.039 29.9489 774.585L31.9244 774.273ZM30.0271 775.08C30.1136 775.625 30.6258 775.997 31.1713 775.911C31.7168 775.824 32.0889 775.312 32.0025 774.767L30.0271 775.08ZM32.9667 780.719C32.8754 780.174 32.3598 779.807 31.8151 779.898C31.2704 779.989 30.9029 780.505 30.9943 781.05L32.9667 780.719ZM32 1C31.014 0.833241 31.014 0.833243 31.014 0.833244C31.014 0.833245 31.014 0.833247 31.014 0.833248C31.014 0.833251 31.014 0.833255 31.014 0.833259C31.014 0.833267 31.014 0.833278 31.014 0.83329C31.014 0.833316 31.014 0.833352 31.014 0.833396C31.014 0.833486 31.0139 0.833613 31.0139 0.833778C31.0139 0.834109 31.0138 0.83459 31.0137 0.835223C31.0135 0.836489 31.0131 0.838359 31.0127 0.840833C31.0119 0.84578 31.0106 0.853143 31.009 0.862912C31.0057 0.88245 31.0008 0.911616 30.9943 0.950348L32.9667 1.28119C32.9732 1.24291 32.978 1.21419 32.9812 1.1951C32.9828 1.18555 32.984 1.17841 32.9848 1.17368C32.9852 1.17132 32.9855 1.16956 32.9857 1.16841C32.9858 1.16783 32.9859 1.1674 32.9859 1.16713C32.986 1.16699 32.986 1.16689 32.986 1.16683C32.986 1.1668 32.986 1.16678 32.986 1.16677C32.986 1.16676 32.986 1.16676 32.986 1.16676C32.986 1.16675 32.986 1.16675 32.986 1.16676C32.986 1.16676 32.986 1.16676 32.986 1.16676C32.986 1.16676 32.986 1.16676 32 1ZM30.0271 6.92032C30.0015 7.08211 29.9754 7.24701 29.9489 7.41503L31.9244 7.72714C31.9509 7.55942 31.9769 7.3948 32.0025 7.2333L30.0271 6.92032ZM29.0064 13.4753C28.9817 13.6365 28.9568 13.7992 28.9317 13.9633L30.9087 14.2657C30.9337 14.1018 30.9586 13.9393 30.9833 13.7783L29.0064 13.4753ZM28.0351 19.9C28.0117 20.0571 27.9881 20.2151 27.9645 20.374L29.9426 20.6686C29.9663 20.5099 29.9898 20.352 30.0132 20.1951L28.0351 19.9ZM27.0827 26.3628C27.0596 26.5212 27.0365 26.6803 27.0133 26.84L28.9925 27.1277C29.0157 26.9681 29.0388 26.8092 29.0618 26.651L27.0827 26.3628ZM26.1467 32.8661C26.1242 33.0237 26.1018 33.1818 26.0792 33.3404L28.0593 33.6217C28.0819 33.4632 28.1043 33.3053 28.1267 33.1478L26.1467 32.8661ZM25.244 39.2786C25.2202 39.4498 25.1963 39.6215 25.1723 39.7938L27.1533 40.0691C27.1772 39.8971 27.2011 39.7255 27.2249 39.5545L25.244 39.2786ZM24.3577 45.7105C24.335 45.8773 24.3122 46.0446 24.2894 46.2123L26.2711 46.482C26.2939 46.3145 26.3167 46.1474 26.3394 45.9807L24.3577 45.7105ZM23.4815 52.2036C23.4598 52.3665 23.438 52.5298 23.4162 52.6934L25.3986 52.9577C25.4204 52.7942 25.4422 52.6311 25.4639 52.4683L23.4815 52.2036ZM22.619 58.7295C22.5965 58.9012 22.574 59.0732 22.5515 59.2456L24.5347 59.5046C24.5572 59.3324 24.5796 59.1605 24.6021 58.9889L22.619 58.7295ZM21.7891 65.1368C21.7677 65.3037 21.7463 65.4708 21.7249 65.6382L23.7087 65.8921C23.7301 65.7249 23.7515 65.5579 23.7729 65.3912L21.7891 65.1368ZM20.9621 71.6535C20.9416 71.8161 20.9212 71.9791 20.9007 72.1422L22.8851 72.3912C22.9056 72.2281 22.926 72.0653 22.9465 71.9028L20.9621 71.6535ZM20.158 78.1186C20.1372 78.2874 20.1164 78.4565 20.0956 78.6258L22.0806 78.8698C22.1014 78.7006 22.1222 78.5317 22.143 78.363L20.158 78.1186ZM19.3691 84.5915C19.3493 84.7559 19.3294 84.9206 19.3096 85.0855L21.2952 85.3247C21.315 85.1599 21.3349 84.9954 21.3547 84.831L19.3691 84.5915ZM18.5909 91.1085C18.5709 91.2782 18.5508 91.4481 18.5307 91.6182L20.517 91.8525C20.537 91.6825 20.5571 91.5128 20.5771 91.3432L18.5909 91.1085ZM17.8368 97.5557C17.8176 97.7211 17.7985 97.8867 17.7793 98.0524L19.7661 98.282C19.7852 98.1164 19.8044 97.951 19.8235 97.7857L17.8368 97.5557ZM17.0878 104.093C17.0686 104.263 17.0493 104.433 17.0301 104.603L19.0174 104.828C19.0366 104.658 19.0559 104.488 19.0751 104.318L17.0878 104.093ZM16.3654 110.533C16.347 110.699 16.3286 110.865 16.3102 111.031L18.298 111.251C18.3164 111.085 18.3348 110.919 18.3532 110.754L16.3654 110.533ZM15.6475 117.071C15.6291 117.24 15.6107 117.41 15.5922 117.58L17.5806 117.795C17.599 117.626 17.6174 117.456 17.6358 117.287L15.6475 117.071ZM14.9545 123.52C14.9369 123.686 14.9193 123.852 14.9017 124.017L16.8905 124.228C16.9081 124.063 16.9257 123.897 16.9433 123.732L14.9545 123.52ZM14.2686 130.046C14.251 130.215 14.2335 130.384 14.2159 130.553L16.2052 130.759C16.2228 130.59 16.2403 130.421 16.2579 130.252L14.2686 130.046ZM13.6035 136.517C13.5867 136.683 13.5699 136.848 13.5531 137.014L15.5429 137.216C15.5597 137.05 15.5765 136.885 15.5933 136.72L13.6035 136.517ZM12.95 143.024C12.9333 143.192 12.9166 143.361 12.8999 143.529L14.8902 143.726C14.9068 143.558 14.9235 143.39 14.9402 143.221L12.95 143.024ZM12.312 149.527C12.296 149.692 12.28 149.857 12.2641 150.022L14.2548 150.215C14.2707 150.05 14.2867 149.885 14.3027 149.72L12.312 149.527ZM11.6911 156.011C11.6752 156.178 11.6594 156.346 11.6435 156.514L13.6347 156.702C13.6505 156.534 13.6663 156.367 13.6822 156.199L11.6911 156.011ZM11.0798 162.552C11.0647 162.717 11.0495 162.881 11.0343 163.046L13.0259 163.229C13.041 163.065 13.0562 162.9 13.0714 162.736L11.0798 162.552ZM10.4914 169.011C10.4764 169.178 10.4614 169.345 10.4464 169.512L12.4384 169.691C12.4533 169.524 12.4683 169.357 12.4833 169.19L10.4914 169.011ZM9.90999 175.56C9.89519 175.729 9.88039 175.898 9.86559 176.068L11.858 176.242C11.8728 176.073 11.8876 175.904 11.9024 175.735L9.90999 175.56ZM9.35095 182.029C9.33679 182.195 9.32265 182.361 9.30851 182.527L11.3013 182.697C11.3154 182.531 11.3296 182.365 11.3437 182.199L9.35095 182.029ZM8.80315 188.544C8.78922 188.712 8.77529 188.88 8.76138 189.048L10.7546 189.213C10.7685 189.045 10.7824 188.877 10.7963 188.709L8.80315 188.544ZM8.2702 195.066C8.25688 195.231 8.24358 195.396 8.23028 195.562L10.2239 195.722C10.2371 195.557 10.2504 195.391 10.2637 195.226L8.2702 195.066ZM7.7557 201.549C7.74264 201.716 7.72958 201.884 7.71653 202.051L9.71048 202.206C9.72352 202.039 9.73656 201.872 9.74962 201.705L7.7557 201.549ZM7.25123 208.103C7.23843 208.272 7.22564 208.441 7.21286 208.61L9.20717 208.761C9.21994 208.592 9.23272 208.423 9.24551 208.254L7.25123 208.103ZM6.76836 214.578C6.75616 214.744 6.74396 214.911 6.73178 215.077L8.72644 215.223C8.73862 215.057 8.7508 214.89 8.763 214.724L6.76836 214.578ZM6.29785 221.096C6.28593 221.264 6.27402 221.432 6.26213 221.6L8.25714 221.741C8.26902 221.574 8.28092 221.406 8.29283 221.238L6.29785 221.096ZM5.84209 227.63C5.83074 227.795 5.8194 227.961 5.80807 228.127L7.80342 228.263C7.81473 228.097 7.82607 227.932 7.83741 227.766L5.84209 227.63ZM5.40534 234.116C5.3943 234.283 5.38327 234.45 5.37225 234.618L7.36792 234.749C7.37893 234.582 7.38995 234.415 7.40099 234.248L5.40534 234.116ZM4.98086 240.659C4.97014 240.827 4.95943 240.996 4.94874 241.164L6.94472 241.291C6.95541 241.123 6.96611 240.954 6.97683 240.786L4.98086 240.659ZM4.57496 247.162C4.56479 247.329 4.55463 247.495 4.54449 247.661L6.54078 247.783C6.55092 247.617 6.56107 247.451 6.57123 247.285L4.57496 247.162ZM4.18483 253.672C4.175 253.84 4.16518 254.007 4.15538 254.175L6.15196 254.292C6.16176 254.124 6.17157 253.957 6.1814 253.789L4.18483 253.672ZM3.80824 260.231C3.7989 260.397 3.78958 260.563 3.78028 260.729L5.77715 260.841C5.78645 260.675 5.79576 260.509 5.80509 260.343L3.80824 260.231ZM3.45233 266.714C3.44338 266.881 3.43445 267.047 3.42554 267.214L5.42269 267.321C5.4316 267.154 5.44052 266.988 5.44946 266.821L3.45233 266.714ZM3.11067 273.239C3.10209 273.407 3.09353 273.575 3.08499 273.743L5.0824 273.845C5.09094 273.677 5.09949 273.509 5.10806 273.341L3.11067 273.239ZM2.78501 279.781C2.77696 279.947 2.76892 280.113 2.76089 280.279L4.75856 280.375C4.76658 280.209 4.77462 280.043 4.78266 279.877L2.78501 279.781ZM2.47835 286.278C2.47068 286.445 2.46303 286.612 2.45539 286.78L4.4533 286.871C4.46094 286.704 4.46859 286.537 4.47625 286.37L2.47835 286.278ZM2.18695 292.814C2.17968 292.983 2.17242 293.151 2.16518 293.319L4.16333 293.405C4.17056 293.237 4.17781 293.069 4.18508 292.901L2.18695 292.814ZM1.91316 299.343C1.9064 299.509 1.89966 299.676 1.89293 299.842L3.8913 299.923C3.89802 299.757 3.90476 299.59 3.91152 299.424L1.91316 299.343ZM1.65752 305.852C1.65117 306.02 1.64484 306.187 1.63852 306.354L3.6371 306.43C3.64341 306.262 3.64974 306.095 3.65608 305.928L1.65752 305.852ZM1.41818 312.395C1.41226 312.563 1.40635 312.732 1.40046 312.9L3.39924 312.97C3.40512 312.802 3.41103 312.634 3.41694 312.466L1.41818 312.395ZM1.19745 318.916C1.19203 319.082 1.18663 319.249 1.18125 319.416L3.18021 319.48C3.18558 319.314 3.19098 319.147 3.19639 318.981L1.19745 318.916ZM0.99472 325.433C0.989742 325.601 0.984781 325.768 0.979837 325.936L2.97897 325.995C2.98391 325.827 2.98886 325.66 2.99384 325.493L0.99472 325.433ZM0.809327 331.98C0.8048 332.148 0.800291 332.316 0.795799 332.485L2.79509 332.538C2.79957 332.37 2.80408 332.202 2.8086 332.034L0.809327 331.98ZM0.643149 338.496C0.639128 338.663 0.635125 338.83 0.631139 338.997L2.63057 339.045C2.63455 338.878 2.63855 338.711 2.64257 338.544L0.643149 338.496ZM0.495343 345.02C0.491786 345.187 0.488248 345.355 0.484727 345.522L2.48429 345.564C2.4878 345.397 2.49134 345.23 2.49489 345.062L0.495343 345.02ZM0.36587 351.568C0.362789 351.736 0.359726 351.904 0.356683 352.072L2.35636 352.109C2.3594 351.94 2.36246 351.772 2.36553 351.604L0.36587 351.568ZM0.256062 358.083C0.253491 358.25 0.250939 358.417 0.248405 358.584L2.24818 358.614C2.25071 358.447 2.25326 358.28 2.25583 358.113L0.256062 358.083ZM0.165306 364.61C0.163224 364.777 0.161162 364.945 0.159119 365.113L2.15897 365.137C2.16101 364.969 2.16307 364.802 2.16515 364.634L0.165306 364.61ZM0.0938706 371.157C0.0922905 371.325 0.0907299 371.494 0.0891888 371.662L2.0891 371.68C2.09064 371.512 2.0922 371.344 2.09378 371.176L0.0938706 371.157ZM0.0425354 377.673C0.0414732 377.84 0.0404305 378.007 0.0394076 378.174L2.03937 378.187C2.04039 378.02 2.04143 377.853 2.0425 377.686L0.0425354 377.673ZM0.0111181 384.202C0.0105711 384.369 0.0100441 384.537 0.00953722 384.705L2.00953 384.711C2.01003 384.543 2.01056 384.376 2.01111 384.208L0.0111181 384.202ZM1.5378e-05 390.748C5.126e-06 390.832 0 390.916 0 391H2C2 390.916 2.00001 390.832 2.00002 390.748L1.5378e-05 390.748ZM0 391C0 391.084 5.126e-06 391.168 1.5378e-05 391.252L2.00002 391.252C2.00001 391.168 2 391.084 2 391H0ZM0.00953674 397.295C0.0100436 397.463 0.0105706 397.63 0.0111176 397.798L2.01111 397.792C2.01056 397.624 2.01003 397.457 2.00953 397.289L0.00953674 397.295ZM0.0394064 403.825C0.0404294 403.993 0.0414721 404.16 0.0425343 404.327L2.04249 404.314C2.04143 404.147 2.04039 403.98 2.03937 403.813L0.0394064 403.825ZM0.0891871 410.338C0.0907282 410.506 0.0922888 410.674 0.0938689 410.843L2.09378 410.824C2.0922 410.656 2.09064 410.488 2.0891 410.32L0.0891871 410.338ZM0.159117 416.887C0.16116 417.055 0.163222 417.223 0.165303 417.39L2.16515 417.365C2.16307 417.198 2.16101 417.03 2.15897 416.863L0.159117 416.887ZM0.248403 423.416C0.250936 423.583 0.253489 423.75 0.25606 423.917L2.25582 423.886C2.25325 423.719 2.2507 423.553 2.24817 423.386L0.248403 423.416ZM0.35668 429.927C0.359723 430.096 0.362786 430.264 0.365866 430.432L2.36553 430.396C2.36245 430.227 2.35939 430.059 2.35635 429.891L0.35668 429.927ZM0.484723 436.477C0.488244 436.645 0.491782 436.813 0.495339 436.98L2.49489 436.938C2.49134 436.77 2.4878 436.603 2.48428 436.435L0.484723 436.477ZM0.631135 443.003C0.63512 443.17 0.639124 443.337 0.643145 443.504L2.64256 443.455C2.63855 443.289 2.63455 443.122 2.63057 442.955L0.631135 443.003ZM0.795793 449.515C0.800286 449.683 0.804795 449.852 0.809323 450.02L2.8086 449.966C2.80408 449.798 2.79957 449.63 2.79508 449.462L0.795793 449.515ZM0.979831 456.064C0.984775 456.231 0.989736 456.399 0.994714 456.566L2.99383 456.507C2.98886 456.34 2.9839 456.172 2.97896 456.005L0.979831 456.064ZM1.18124 462.584C1.18662 462.751 1.19202 462.917 1.19744 463.084L3.19639 463.019C3.19097 462.853 3.18558 462.686 3.1802 462.519L1.18124 462.584ZM1.40046 469.1C1.40635 469.268 1.41225 469.436 1.41818 469.605L3.41694 469.534C3.41102 469.366 3.40512 469.198 3.39923 469.03L1.40046 469.1ZM1.63851 475.645C1.64483 475.813 1.65116 475.98 1.65751 476.148L3.65607 476.072C3.64973 475.905 3.6434 475.737 3.63709 475.57L1.63851 475.645ZM1.89292 482.158C1.89965 482.324 1.9064 482.491 1.91316 482.657L3.91151 482.576C3.90476 482.41 3.89802 482.243 3.89129 482.077L1.89292 482.158ZM2.16517 488.681C2.17241 488.849 2.17967 489.017 2.18694 489.185L4.18507 489.099C4.17781 488.931 4.17056 488.763 4.16332 488.595L2.16517 488.681ZM2.45538 495.22C2.46302 495.387 2.47067 495.555 2.47834 495.722L4.47624 495.63C4.46858 495.463 4.46093 495.296 4.4533 495.129L2.45538 495.22ZM2.76088 501.721C2.76891 501.887 2.77695 502.053 2.785 502.219L4.78266 502.122C4.77461 501.956 4.76658 501.79 4.75856 501.624L2.76088 501.721ZM3.08498 508.257C3.09352 508.425 3.10208 508.593 3.11066 508.761L5.10805 508.659C5.09949 508.491 5.09093 508.323 5.08239 508.155L3.08498 508.257ZM3.42553 514.786C3.43445 514.953 3.44338 515.119 3.45232 515.286L5.44945 515.179C5.44051 515.012 5.43159 514.846 5.42268 514.679L3.42553 514.786ZM3.78027 521.271C3.78957 521.437 3.7989 521.603 3.80823 521.769L5.80508 521.657C5.79576 521.491 5.78644 521.325 5.77714 521.159L3.78027 521.271ZM4.15537 527.825C4.16517 527.993 4.17499 528.16 4.18482 528.328L6.18139 528.211C6.17156 528.043 6.16175 527.876 6.15196 527.708L4.15537 527.825ZM4.54448 534.338C4.55462 534.505 4.56478 534.671 4.57495 534.837L6.57122 534.715C6.56106 534.549 6.55091 534.383 6.54077 534.217L4.54448 534.338ZM4.94873 540.835C4.95942 541.004 4.97013 541.173 4.98085 541.341L6.97681 541.214C6.9661 541.046 6.9554 540.877 6.94471 540.709L4.94873 540.835ZM5.37224 547.382C5.38326 547.549 5.39429 547.716 5.40533 547.883L7.40097 547.752C7.38994 547.585 7.37892 547.418 7.3679 547.251L5.37224 547.382ZM5.80806 553.873C5.81939 554.039 5.83073 554.205 5.84208 554.37L7.8374 554.234C7.82606 554.068 7.81472 553.903 7.80341 553.737L5.80806 553.873ZM6.26212 560.4C6.27401 560.568 6.28592 560.736 6.29784 560.904L8.29282 560.762C8.28091 560.594 8.26901 560.426 8.25712 560.258L6.26212 560.4ZM6.73176 566.923C6.74395 567.089 6.75615 567.256 6.76835 567.422L8.76299 567.276C8.75079 567.109 8.7386 566.943 8.72643 566.777L6.73176 566.923ZM7.21285 573.389C7.22563 573.559 7.23842 573.728 7.25122 573.896L9.2455 573.745C9.23271 573.577 9.21993 573.408 9.20716 573.239L7.21285 573.389ZM7.71652 579.949C7.72957 580.116 7.74262 580.283 7.75569 580.451L9.74961 580.295C9.73655 580.128 9.7235 579.961 9.71047 579.793L7.71652 579.949ZM8.23027 586.438C8.24357 586.603 8.25687 586.769 8.27019 586.934L10.2637 586.774C10.2504 586.608 10.2371 586.443 10.2238 586.278L8.23027 586.438ZM8.76136 592.952C8.77528 593.12 8.7892 593.288 8.80314 593.456L10.7963 593.291C10.7824 593.123 10.7685 592.955 10.7546 592.787L8.76136 592.952ZM9.30849 599.473C9.32263 599.639 9.33678 599.805 9.35093 599.971L11.3437 599.801C11.3296 599.635 11.3154 599.469 11.3013 599.303L9.30849 599.473ZM9.86558 605.932C9.88037 606.101 9.89517 606.271 9.90998 606.44L11.9024 606.265C11.8876 606.096 11.8728 605.927 11.858 605.758L9.86558 605.932ZM10.4464 612.488C10.4613 612.655 10.4763 612.822 10.4913 612.989L12.4833 612.81C12.4683 612.643 12.4533 612.476 12.4383 612.309L10.4464 612.488ZM11.0343 618.954C11.0495 619.119 11.0646 619.283 11.0798 619.448L13.0714 619.264C13.0562 619.1 13.041 618.935 13.0259 618.771L11.0343 618.954ZM11.6435 625.486C11.6593 625.654 11.6752 625.822 11.691 625.989L13.6821 625.801C13.6663 625.633 13.6505 625.466 13.6346 625.298L11.6435 625.486ZM12.2641 631.978C12.28 632.143 12.296 632.308 12.312 632.473L14.3027 632.28C14.2867 632.115 14.2707 631.95 14.2548 631.785L12.2641 631.978ZM12.8999 638.471C12.9166 638.639 12.9333 638.808 12.95 638.976L14.9402 638.779C14.9235 638.61 14.9068 638.442 14.8901 638.274L12.8999 638.471ZM13.5531 644.986C13.5699 645.152 13.5867 645.317 13.6035 645.482L15.5932 645.28C15.5764 645.115 15.5597 644.95 15.5429 644.784L13.5531 644.986ZM14.2159 651.447C14.2334 651.616 14.251 651.785 14.2686 651.954L16.2579 651.747C16.2403 651.579 16.2227 651.41 16.2052 651.24L14.2159 651.447ZM14.9016 657.982C14.9192 658.148 14.9368 658.314 14.9544 658.48L16.9432 658.268C16.9257 658.103 16.9081 657.937 16.8905 657.771L14.9016 657.982ZM15.5922 664.42C15.6106 664.59 15.6291 664.76 15.6475 664.929L17.6358 664.713C17.6174 664.544 17.599 664.374 17.5806 664.205L15.5922 664.42ZM16.3102 670.969C16.3286 671.135 16.347 671.301 16.3653 671.467L18.3531 671.246C18.3348 671.081 18.3164 670.915 18.298 670.749L16.3102 670.969ZM17.03 677.397C17.0493 677.567 17.0686 677.737 17.0878 677.907L19.0751 677.682C19.0558 677.512 19.0366 677.342 19.0174 677.172L17.03 677.397ZM17.7793 683.948C17.7984 684.113 17.8176 684.279 17.8367 684.444L19.8235 684.214C19.8043 684.049 19.7852 683.883 19.7661 683.718L17.7793 683.948ZM18.5307 690.382C18.5508 690.552 18.5709 690.722 18.5909 690.891L20.5771 690.657C20.5571 690.487 20.537 690.317 20.517 690.147L18.5307 690.382ZM19.3095 696.914C19.3294 697.079 19.3492 697.244 19.3691 697.408L21.3547 697.169C21.3349 697.005 21.315 696.84 21.2952 696.675L19.3095 696.914ZM20.0956 703.374C20.1164 703.543 20.1372 703.712 20.158 703.881L22.143 703.637C22.1222 703.468 22.1014 703.299 22.0806 703.13L20.0956 703.374ZM20.9007 709.858C20.9211 710.021 20.9416 710.184 20.962 710.346L22.9464 710.097C22.926 709.935 22.9056 709.772 22.8851 709.609L20.9007 709.858ZM21.7249 716.362C21.7463 716.529 21.7677 716.696 21.7891 716.863L23.7729 716.609C23.7515 716.442 23.7301 716.275 23.7087 716.108L21.7249 716.362ZM22.5515 722.754C22.574 722.927 22.5965 723.099 22.619 723.27L24.6021 723.011C24.5796 722.839 24.5571 722.667 24.5346 722.495L22.5515 722.754ZM23.4162 729.307C23.438 729.47 23.4598 729.633 23.4815 729.796L25.4639 729.532C25.4422 729.369 25.4204 729.206 25.3986 729.042L23.4162 729.307ZM24.2894 735.788C24.3122 735.955 24.335 736.123 24.3577 736.289L26.3394 736.019C26.3167 735.852 26.2939 735.685 26.2711 735.518L24.2894 735.788ZM25.1723 742.206C25.1963 742.378 25.2202 742.55 25.244 742.721L27.2249 742.445C27.2011 742.274 27.1772 742.103 27.1533 741.931L25.1723 742.206ZM26.0792 748.659C26.1017 748.818 26.1242 748.976 26.1466 749.134L28.1267 748.852C28.1043 748.695 28.0818 748.537 28.0593 748.378L26.0792 748.659ZM27.0132 755.16C27.0365 755.32 27.0596 755.479 27.0827 755.637L29.0618 755.349C29.0388 755.191 29.0156 755.032 28.9924 754.872L27.0132 755.16ZM27.9644 761.626C27.9881 761.785 28.0116 761.943 28.0351 762.1L30.0132 761.805C29.9898 761.648 29.9663 761.49 29.9426 761.331L27.9644 761.626ZM28.9316 768.037C28.9567 768.201 28.9816 768.363 29.0064 768.525L30.9833 768.222C30.9586 768.061 30.9337 767.898 30.9087 767.734L28.9316 768.037ZM29.9489 774.585C29.9754 774.753 30.0015 774.918 30.0271 775.08L32.0025 774.767C31.9769 774.605 31.9509 774.44 31.9244 774.273L29.9489 774.585ZM30.9943 781.05C31.0008 781.088 31.0057 781.118 31.009 781.137C31.0106 781.147 31.0119 781.154 31.0127 781.159C31.0131 781.162 31.0135 781.164 31.0137 781.165C31.0138 781.165 31.0139 781.166 31.0139 781.166C31.0139 781.166 31.014 781.167 31.014 781.167C31.014 781.167 31.014 781.167 31.014 781.167C31.014 781.167 31.014 781.167 31.014 781.167C31.014 781.167 31.014 781.167 31.014 781.167C31.014 781.167 31.014 781.167 32 781C32.986 780.833 32.986 780.833 32.986 780.833H32.986C32.986 780.833 32.986 780.833 32.986 780.833C32.986 780.833 32.986 780.833 32.986 780.833C32.986 780.833 32.986 780.833 32.9859 780.833C32.9859 780.833 32.9858 780.832 32.9857 780.832C32.9855 780.83 32.9852 780.829 32.9848 780.826C32.984 780.822 32.9828 780.814 32.9812 780.805C32.978 780.786 32.9732 780.757 32.9667 780.719L30.9943 781.05Z" fill="#B5B5B5"/>
</svg>
